<svg xmlns="http://www.w3.org/2000/svg" width="577" height="360" viewBox="0 0 577 360">
  <g id="グループ_57" data-name="グループ 57" transform="translate(-671.5 -471)">
    <rect id="長方形_37" data-name="長方形 37" width="561" height="344" rx="38" transform="translate(679.5 479)" fill="#fbb03b"/>
    <path id="パス_38" data-name="パス 38" d="M1202.5,2054a36.04,36.04,0,0,1,36,36v268a36.041,36.041,0,0,1-36,36h-485a36.041,36.041,0,0,1-36-36V2090a36.04,36.04,0,0,1,36-36h485m0-4h-485a40,40,0,0,0-40,40v268a40,40,0,0,0,40,40h485a40,40,0,0,0,40-40V2090a40,40,0,0,0-40-40Z" transform="translate(0 -1573)" fill="#fff"/>
    <path id="パス_39" data-name="パス 39" d="M1202.5,2050a40,40,0,0,1,40,40v268a40,40,0,0,1-40,40h-485a40,40,0,0,1-40-40V2090a40,40,0,0,1,40-40h485m0-6h-485a46.051,46.051,0,0,0-46,46v268a46.051,46.051,0,0,0,46,46h485a46.051,46.051,0,0,0,46-46V2090a46.051,46.051,0,0,0-46-46Z" transform="translate(0 -1573)" fill="gray"/>
    <path id="パス_40" data-name="パス 40" d="M677.5,2289v69a40,40,0,0,0,40,40h485a40,40,0,0,0,40-40v-69Z" transform="translate(0 -1573)" fill="#fff"/>
    <text id="大小兼用" transform="translate(960 791.5)" fill="#707070" font-size="60" font-family="NotoSansCJKjp-Black, Noto Sans CJK JP" font-weight="800"><tspan x="-120" y="0">大小兼用</tspan></text>
    <g id="グループ_22" data-name="グループ 22" transform="translate(0 -1573)">
      <path id="パス_21" data-name="パス 21" d="M769.662,2182.1v63.72l29.285,8.682h1.08a33.854,33.854,0,0,1,54.511-37.1v-77.338H785.932Zm13.015,1.08,10.457-32.94,45.866.121v32.815Z" fill="#fff"/>
      <path id="パス_22" data-name="パス 22" d="M1151.121,2089.921v131.354H1091.69a33.841,33.841,0,0,0-53.037,0H866.516V2089.921Z" fill="#fff"/>
      <path id="パス_23" data-name="パス 23" d="M806.2,2242.358a25.445,25.445,0,1,0,25.448-25.443h0A25.446,25.446,0,0,0,806.2,2242.358Zm10.568,0a14.878,14.878,0,1,1,14.88,14.875,14.878,14.878,0,0,1-14.88-14.875Z" fill="#fff"/>
      <path id="パス_24" data-name="パス 24" d="M1039.727,2242.358a25.445,25.445,0,1,0,25.448-25.443h-.005A25.445,25.445,0,0,0,1039.727,2242.358Zm10.568,0a14.878,14.878,0,1,1,14.88,14.875h-.005a14.892,14.892,0,0,1-14.876-14.875Z" fill="#fff"/>
      <path id="パス_48" data-name="パス 48" d="M1032.039,2241.986a33.261,33.261,0,0,1,1.588-10.17H866.516v15.407h165.936A33.6,33.6,0,0,1,1032.039,2241.986Z" fill="#fff"/>
      <path id="パス_49" data-name="パス 49" d="M1097.051,2231.816a33.261,33.261,0,0,1,1.588,10.17,33.6,33.6,0,0,1-.413,5.237h52.613v-15.407Z" fill="#fff"/>
    </g>
  </g>
</svg>
