<svg id="コンポーネント_5_17" data-name="コンポーネント 5 – 17" xmlns="http://www.w3.org/2000/svg" width="401.692" height="73.7" viewBox="0 0 401.692 73.7">
  <text id="小型マルチ" transform="translate(301.692 53.139)" fill="#fff" font-size="40" font-family="NotoSansCJKjp-Black, Noto Sans CJK JP" font-weight="800"><tspan x="-100" y="0">小型</tspan><tspan y="0">マルチ</tspan></text>
  <path id="パス_26" data-name="パス 26" d="M2159.287,1688.625a18.047,18.047,0,1,0,18.047,18.047A18.048,18.048,0,0,0,2159.287,1688.625Zm0,28.875a10.829,10.829,0,1,1,10.827-10.829A10.828,10.828,0,0,1,2159.287,1717.5Z" transform="translate(-2124.102 -1651.02)" fill="#fff"/>
  <path id="パス_26-2" data-name="パス 26" d="M2159.287,1688.625a18.047,18.047,0,1,0,18.047,18.047A18.048,18.048,0,0,0,2159.287,1688.625Zm0,28.875a10.829,10.829,0,1,1,10.827-10.829A10.828,10.828,0,0,1,2159.287,1717.5Z" transform="translate(-2008.102 -1651.02)" fill="#fff"/>
  <path id="パス_91" data-name="パス 91" d="M2312.879,1679.378c-1.653,0-7.729-.277-12.288-.737a27.165,27.165,0,0,1-13.671-5.07l-20.384-12.743c-5.441-2.927-9.879-4.08-12.937-4.08h-43.932c-5.707,0-9.49.889-12.829,3.578l-23.648,19.041-40.793,5.892a6.708,6.708,0,0,0-5.441,6.1v14.156a5.345,5.345,0,0,0,5.562,5.06l9.07,1.843c.016-.215.041-.428.065-.642-.035-.442-.059-.889-.059-1.339,0-10.437,9.3-18.9,20.761-18.9,10.964,0,19.938,7.738,20.7,17.541a17.578,17.578,0,0,1,.57,3.336h73.849c.025-.337.06-.672.1-1q-.027-.486-.028-.977c0-10.437,9.3-18.9,20.761-18.9,11.112,0,20.185,7.946,20.733,17.935a17.5,17.5,0,0,1,.47,2.942l13.239-1.843a5.345,5.345,0,0,0,5.561-5.061V1685.5C2318.2,1682.588,2315.784,1679.563,2312.879,1679.378Zm-87.084.147h-43.666s14.418-11.891,17.52-14.56a14.045,14.045,0,0,1,9.46-3.155H2225.8Zm5.561,0v-17.715h24.812c1.39,0,2.858,1.065,4.384,2.768l12.865,14.947Z" transform="translate(-2126.957 -1656.748)" fill="#fff"/>
</svg>
