<svg xmlns="http://www.w3.org/2000/svg" width="577" height="360" viewBox="0 0 577 360">
  <g id="グループ_67" data-name="グループ 67" transform="translate(-671.5 -762)">
    <g id="グループ_66" data-name="グループ 66">
      <rect id="長方形_37" data-name="長方形 37" width="561" height="344" rx="38" transform="translate(680 770)" fill="#ac67c9"/>
      <path id="パス_38" data-name="パス 38" d="M1202.5,2054a36.04,36.04,0,0,1,36,36v268a36.041,36.041,0,0,1-36,36h-485a36.041,36.041,0,0,1-36-36V2090a36.04,36.04,0,0,1,36-36h485m0-4h-485a40,40,0,0,0-40,40v268a40,40,0,0,0,40,40h485a40,40,0,0,0,40-40V2090a40,40,0,0,0-40-40Z" transform="translate(0 -1282)" fill="#fff"/>
      <path id="パス_39" data-name="パス 39" d="M1202.5,2050a40,40,0,0,1,40,40v268a40,40,0,0,1-40,40h-485a40,40,0,0,1-40-40V2090a40,40,0,0,1,40-40h485m0-6h-485a46.051,46.051,0,0,0-46,46v268a46.051,46.051,0,0,0,46,46h485a46.051,46.051,0,0,0,46-46V2090a46.051,46.051,0,0,0-46-46Z" transform="translate(0 -1282)" fill="gray"/>
      <path id="パス_40" data-name="パス 40" d="M677.5,2289v69a40,40,0,0,0,40,40h485a40,40,0,0,0,40-40v-69Z" transform="translate(0 -1282)" fill="#fff"/>
      <text id="大型マルチ" transform="translate(960 1082.5)" fill="#707070" font-size="60" font-family="NotoSansCJKjp-Black, Noto Sans CJK JP" font-weight="800"><tspan x="-150" y="0">大型</tspan><tspan y="0">マルチ</tspan></text>
      <g id="グループ_64" data-name="グループ 64" transform="translate(214.45 348.037)">
        <path id="パス_107" data-name="パス 107" d="M551.819,489.827,535.55,531.86v63.717l29.288,8.681h1.078a33.852,33.852,0,0,1,54.507-37.1V465.876Zm53.065,43.116h-56.32l10.457-32.934,45.863.122Z" transform="translate(0 21.23)" fill="#fff"/>
        <g id="グループ_64-2" data-name="グループ 64" transform="translate(706.199 602.805)">
          <path id="パス_108" data-name="パス 108" d="M567.847,487.773a32.494,32.494,0,0,1,1.31,15.407h91.1V487.773Z" transform="translate(-567.847 -487.773)" fill="#fff"/>
        </g>
        <rect id="長方形_413" data-name="長方形 413" width="13.69" height="15.405" transform="translate(862.511 602.805)" fill="#fff"/>
        <rect id="長方形_414" data-name="長方形 414" width="13.69" height="15.405" transform="translate(942.53 602.805)" fill="#fff"/>
        <path id="パス_109" data-name="パス 109" d="M567.907,484.953a25.441,25.441,0,1,0,25.446,25.441A25.44,25.44,0,0,0,567.907,484.953Zm0,40.315a14.874,14.874,0,1,1,14.879-14.874A14.892,14.892,0,0,1,567.907,525.268Z" transform="translate(29.627 102.952)" fill="#fff"/>
        <path id="パス_110" data-name="パス 110" d="M612.1,484.953a25.441,25.441,0,1,0,25.441,25.441A25.44,25.44,0,0,0,612.1,484.953Zm0,40.315a14.874,14.874,0,1,1,14.874-14.874A14.892,14.892,0,0,1,612.1,525.268Z" transform="translate(218.939 102.952)" fill="#fff"/>
        <path id="パス_111" data-name="パス 111" d="M626.6,484.953a25.441,25.441,0,1,0,25.447,25.441A25.44,25.44,0,0,0,626.6,484.953Zm0,40.315a14.874,14.874,0,1,1,14.879-14.874A14.892,14.892,0,0,1,626.6,525.268Z" transform="translate(281.066 102.952)" fill="#fff"/>
        <rect id="長方形_415" data-name="長方形 415" width="13.69" height="15.405" transform="translate(629.006 602.805)" fill="#fff"/>
        <path id="パス_112" data-name="パス 112" d="M582.415,484.953a25.441,25.441,0,1,0,25.441,25.441A25.441,25.441,0,0,0,582.415,484.953Zm0,40.315a14.874,14.874,0,1,1,14.874-14.874A14.893,14.893,0,0,1,582.415,525.268Z" transform="translate(91.754 102.952)" fill="#fff"/>
        <path id="パス_113" data-name="パス 113" d="M553.88,460.92V592.264h15.45a33.689,33.689,0,0,1,52.632,0H726a33.84,33.84,0,0,1,53.038,0h23.581a33.851,33.851,0,0,1,53.065,0H877.7V460.92Z" transform="translate(78.521 0)" fill="#fff"/>
      </g>
    </g>
  </g>
</svg>
