<svg xmlns="http://www.w3.org/2000/svg" width="413.721" height="83.884" viewBox="0 0 413.721 83.884">
  <g id="グループ_69" data-name="グループ 69" transform="translate(-164.279 -32.957)">
    <text id="大型マルチ" transform="translate(478 96)" fill="#fff" font-size="40" font-family="NotoSansCJKjp-Black, Noto Sans CJK JP" font-weight="800"><tspan x="-100" y="0">大型</tspan><tspan y="0">マルチ</tspan></text>
    <g id="グループ_65" data-name="グループ 65" transform="translate(-371.271 -427.963)">
      <path id="パス_107" data-name="パス 107" d="M543.222,477.172l-7.673,19.823v30.049l13.813,4.094h.508a15.965,15.965,0,0,1,25.706-17.5V465.876Zm25.026,20.334H541.687l4.931-15.532,21.629.057Z" transform="translate(0 7.394)" fill="#fff"/>
      <g id="グループ_64" data-name="グループ 64" transform="translate(616.03 527.834)">
        <path id="パス_108" data-name="パス 108" d="M567.847,487.773a15.326,15.326,0,0,1,.618,7.266h42.962v-7.266Z" transform="translate(-567.847 -487.773)" fill="#fff"/>
      </g>
      <rect id="長方形_413" data-name="長方形 413" width="6.456" height="7.265" transform="translate(689.748 527.834)" fill="#fff"/>
      <rect id="長方形_414" data-name="長方形 414" width="6.456" height="7.265" transform="translate(727.486 527.834)" fill="#fff"/>
      <path id="パス_109" data-name="パス 109" d="M554.464,484.953a12,12,0,1,0,12,12A12,12,0,0,0,554.464,484.953Zm0,19.013a7.015,7.015,0,1,1,7.017-7.015A7.023,7.023,0,0,1,554.464,503.966Z" transform="translate(10.318 35.854)" fill="#fff"/>
      <path id="パス_110" data-name="パス 110" d="M598.657,484.953a12,12,0,1,0,12,12A12,12,0,0,0,598.657,484.953Zm0,19.013a7.015,7.015,0,1,1,7.015-7.015A7.023,7.023,0,0,1,598.657,503.966Z" transform="translate(76.248 35.854)" fill="#fff"/>
      <path id="パス_111" data-name="パス 111" d="M613.16,484.953a12,12,0,1,0,12,12A12,12,0,0,0,613.16,484.953Zm0,19.013a7.015,7.015,0,1,1,7.017-7.015A7.023,7.023,0,0,1,613.16,503.966Z" transform="translate(97.885 35.854)" fill="#fff"/>
      <rect id="長方形_415" data-name="長方形 415" width="6.456" height="7.265" transform="translate(579.625 527.834)" fill="#fff"/>
      <path id="パス_112" data-name="パス 112" d="M568.97,484.953a12,12,0,1,0,12,12A12,12,0,0,0,568.97,484.953Zm0,19.013a7.015,7.015,0,1,1,7.015-7.015A7.024,7.024,0,0,1,568.97,503.966Z" transform="translate(31.955 35.854)" fill="#fff"/>
      <path id="パス_113" data-name="パス 113" d="M553.88,460.92v61.943h7.286a15.888,15.888,0,0,1,24.822,0h49.065a15.959,15.959,0,0,1,25.013,0h11.121a15.965,15.965,0,0,1,25.026,0H706.6V460.92Z" transform="translate(27.346 0)" fill="#fff"/>
    </g>
  </g>
</svg>
