<svg xmlns="http://www.w3.org/2000/svg" width="577" height="360" viewBox="0 0 577 360">
  <g id="グループ_58" data-name="グループ 58" transform="translate(-1291.5 -471)">
    <rect id="長方形_39" data-name="長方形 39" width="561" height="344" rx="38" transform="translate(1299.5 479)" fill="#39b54a"/>
    <path id="パス_41" data-name="パス 41" d="M1822.5,2054a36.041,36.041,0,0,1,36,36v268a36.041,36.041,0,0,1-36,36h-485a36.041,36.041,0,0,1-36-36V2090a36.04,36.04,0,0,1,36-36h485m0-4h-485a40,40,0,0,0-40,40v268a40,40,0,0,0,40,40h485a40,40,0,0,0,40-40V2090a40,40,0,0,0-40-40Z" transform="translate(0 -1573)" fill="#fff"/>
    <path id="パス_42" data-name="パス 42" d="M1822.5,2050a40,40,0,0,1,40,40v268a40,40,0,0,1-40,40h-485a40,40,0,0,1-40-40V2090a40,40,0,0,1,40-40h485m0-6h-485a46.051,46.051,0,0,0-46,46v268a46.051,46.051,0,0,0,46,46h485a46.051,46.051,0,0,0,46-46V2090a46.051,46.051,0,0,0-46-46Z" transform="translate(0 -1573)" fill="gray"/>
    <path id="パス_43" data-name="パス 43" d="M1297.5,2289v69a40,40,0,0,0,40,40h485a40,40,0,0,0,40-40v-69Z" transform="translate(0 -1573)" fill="#fff"/>
    <text id="二輪" transform="translate(1580 791.5)" fill="#707070" font-size="60" font-family="NotoSansCJKjp-Black, Noto Sans CJK JP" font-weight="800"><tspan x="-60" y="0">二輪</tspan></text>
    <g id="グループ_5" data-name="グループ 5" transform="translate(0 -1573)">
      <path id="パス_28" data-name="パス 28" d="M1475.862,2170.931a43.479,43.479,0,1,0,43.478,43.481,43.48,43.48,0,0,0-43.478-43.481Zm0,71.247a27.767,27.767,0,1,1,27.765-27.77v.005A27.764,27.764,0,0,1,1475.862,2242.178Z" fill="#fff"/>
      <path id="パス_29" data-name="パス 29" d="M1671.547,2170.931a43.479,43.479,0,1,0,43.48,43.481,43.48,43.48,0,0,0-43.48-43.481Zm0,71.247a27.767,27.767,0,1,1,27.769-27.766h0a27.765,27.765,0,0,1-27.765,27.765Z" fill="#fff"/>
      <rect id="長方形_13" data-name="長方形 13" width="60.289" height="11.774" transform="matrix(0.489, -0.872, 0.872, 0.489, 1470.618, 2211.11)" fill="#fff"/>
      <path id="パス_31" data-name="パス 31" d="M1669.15,2220.272l-70.345-22.648,9.833-19.665,65.086,31.463Z" fill="#fff"/>
      <circle id="楕円形_1" data-name="楕円形 1" cx="9.481" cy="9.481" r="9.481" transform="translate(1466.381 2204.931)" fill="#fff"/>
      <circle id="楕円形_2" data-name="楕円形 2" cx="9.481" cy="9.481" r="9.481" transform="translate(1662.067 2204.931)" fill="#fff"/>
      <path id="パス_32" data-name="パス 32" d="M1581.586,2233.765h30.445l45.234-9.91-3.731-16.672-43.834,7.232-11.79,8.136Z" fill="#fff"/>
      <path id="パス_33" data-name="パス 33" d="M1539,2188l35,32,34-18,8.464-20.377,58.978-41.326s5.874-1.6,8.116.688c6.873,7.016,21.1,21.523,23.142,23.5,2.712,2.619,6.468.966,6.468.966s3.32.35,1.832-2.449c-1.24-2.332-15.009-27.076-20.148-36.173a6.09,6.09,0,0,0-5.363-2.907H1667.5c-1.5,0-4.868.98-6.237,2.5-4.71,5.225-19.594,9.825-23.379,9.825h-32.7c-3.182,0-15.958-15.959-15.958-15.959a13.435,13.435,0,0,0-9.224-3.364h-28.593c-4.2,0-8.655,2.708-11.54,4.721s-29.515,21.028-29.515,21.028l54.122,25.705Z" fill="#fff"/>
      <path id="パス_34" data-name="パス 34" d="M1607.836,2202.52l-34.046,11.892-27.514-26.7L1580,2166l-79.873-35s-1.887-2.322-.467-3.995c4-4.713,11.91-14.07,13.975-16.824,2.8-3.732,5.13-7,2.331-9.793s-3.713-3.4-5.7-5.624c-2.469-2.76-9.219,2.362-9.219,2.362s-14.923,10.723-25.183,25.18c-6.915,9.743-10.017,21.816-11.3,28.653-.623,3.308.944,5.477,1.824,5.545a70.28,70.28,0,0,1,29.893,9.308h9.069l.384,7.229a50.552,50.552,0,0,1,5.58,6.155c17.254,22.851,19.119,43.371,19.119,47.566s2.8,6.994,11.19,6.994H1603V2220.9l-.762.738Z" fill="#fff"/>
    </g>
  </g>
</svg>
