<svg xmlns="http://www.w3.org/2000/svg" width="577" height="360" viewBox="0 0 577 360">
  <g id="グループ_56" data-name="グループ 56" transform="translate(-51.5 -471)">
    <rect id="長方形_41" data-name="長方形 41" width="561" height="344" rx="38" transform="translate(59.5 479)" fill="#3fa9f5"/>
    <path id="パス_44" data-name="パス 44" d="M582.5,2054a36.04,36.04,0,0,1,36,36v268a36.041,36.041,0,0,1-36,36H97.5a36.041,36.041,0,0,1-36-36V2090a36.04,36.04,0,0,1,36-36h485m0-4H97.5a40,40,0,0,0-40,40v268a40,40,0,0,0,40,40h485a40,40,0,0,0,40-40V2090a40,40,0,0,0-40-40Z" transform="translate(0 -1573)" fill="#fff"/>
    <path id="パス_45" data-name="パス 45" d="M582.5,2050a40,40,0,0,1,40,40v268a40,40,0,0,1-40,40H97.5a40,40,0,0,1-40-40V2090a40,40,0,0,1,40-40h485m0-6H97.5a46.051,46.051,0,0,0-46,46v268a46.051,46.051,0,0,0,46,46h485a46.051,46.051,0,0,0,46-46V2090a46.051,46.051,0,0,0-46-46Z" transform="translate(0 -1573)" fill="gray"/>
    <g id="グループ_21" data-name="グループ 21" transform="translate(0 -1573)">
      <path id="パス_25" data-name="パス 25" d="M450.316,2191.1a32.947,32.947,0,1,0,32.947,32.947A32.947,32.947,0,0,0,450.316,2191.1Zm0,52.715a19.768,19.768,0,1,1,19.767-19.768A19.768,19.768,0,0,1,450.316,2243.819Z" fill="#fff"/>
      <path id="パス_26" data-name="パス 26" d="M221.451,2191.1a32.947,32.947,0,1,0,32.947,32.947A32.947,32.947,0,0,0,221.451,2191.1Zm0,52.715a19.768,19.768,0,1,1,19.767-19.768A19.768,19.768,0,0,1,221.451,2243.819Z" fill="#fff"/>
      <path id="パス_46" data-name="パス 46" d="M518.22,2156.6c-3.265,0-15.265-.6-24.265-1.6-12.017-1.335-21.327-6.2-27-11L426.7,2116.35c-10.745-6.35-19.511-8.852-25.55-8.852H314.39c-11.268,0-18.742,1.927-25.336,7.764l-46.7,41.315-80.562,12.783a14.167,14.167,0,0,0-10.747,13.245v30.715a11.016,11.016,0,0,0,10.984,10.98l17.913,4c.03-.468.081-.93.127-1.393-.068-.962-.114-1.929-.114-2.907a40.994,40.994,0,0,1,81.883-2.941,41.663,41.663,0,0,1,1.125,7.241H408.808q.072-1.1.2-2.18-.054-1.053-.054-2.12a41,41,0,0,1,81.947-2.084,41.857,41.857,0,0,1,.927,6.384l26.144-4a11.015,11.015,0,0,0,10.982-10.982v-43.433C528.728,2163.562,523.955,2157,518.22,2156.6Zm-171.981.32H260.006s28.471-25.8,34.6-31.591c5.651-5.332,12.373-6.847,18.682-6.847h32.952Zm10.982,0v-38.438h49c2.746,0,5.645,2.312,8.659,6.007l25.407,32.431Z" fill="#fff"/>
    </g>
    <path id="パス_47" data-name="パス 47" d="M57.5,2289v69a40,40,0,0,0,40,40h485a40,40,0,0,0,40-40v-69Z" transform="translate(0 -1573)" fill="#fff"/>
    <text id="小型マルチ" transform="translate(340 791.5)" fill="#707070" font-size="60" font-family="NotoSansCJKjp-Black, Noto Sans CJK JP" font-weight="800"><tspan x="-150" y="0">小型</tspan><tspan y="0">マルチ</tspan></text>
  </g>
</svg>
