<svg id="コンポーネント_7_1" data-name="コンポーネント 7 – 1" xmlns="http://www.w3.org/2000/svg" width="376.652" height="111.842" viewBox="0 0 376.652 111.842">
  <g id="グループ_5" data-name="グループ 5">
    <path id="パス_28" data-name="パス 28" d="M1462.045,2170.931a29.662,29.662,0,1,0,29.662,29.664,29.663,29.663,0,0,0-29.662-29.664Zm0,48.607a18.944,18.944,0,1,1,18.942-18.946v0A18.942,18.942,0,0,1,1462.045,2219.538Z" transform="translate(-1432.382 -2118.414)" fill="#fff"/>
    <path id="パス_29" data-name="パス 29" d="M1657.731,2170.931a29.662,29.662,0,1,0,29.663,29.664,29.663,29.663,0,0,0-29.663-29.664Zm0,48.607a18.944,18.944,0,1,1,18.945-18.943h0a18.942,18.942,0,0,1-18.942,18.942Z" transform="translate(-1494.566 -2118.414)" fill="#fff"/>
    <rect id="長方形_13" data-name="長方形 13" width="41.131" height="8.032" transform="matrix(0.489, -0.872, 0.872, 0.489, 26.086, 79.928)" fill="#fff"/>
    <path id="パス_31" data-name="パス 31" d="M1646.8,2206.826l-47.991-15.451,6.708-13.416,44.4,21.465Z" transform="translate(-1485.267 -2120.648)" fill="#fff"/>
    <circle id="楕円形_1" data-name="楕円形 1" cx="6.468" cy="6.468" r="6.468" transform="translate(23.195 75.712)" fill="#fff"/>
    <circle id="楕円形_2" data-name="楕円形 2" cx="6.468" cy="6.468" r="6.468" transform="translate(156.697 75.712)" fill="#fff"/>
    <path id="パス_32" data-name="パス 32" d="M1581.586,2225.318h20.77l30.86-6.761-2.545-11.374-29.9,4.934-8.043,5.551Z" transform="translate(-1479.795 -2129.934)" fill="#fff"/>
    <path id="パス_33" data-name="パス 33" d="M1529.9,2165.413l23.878,21.831,23.2-12.28,5.774-13.9,40.236-28.193s4.007-1.093,5.537.469c4.689,4.786,14.392,14.684,15.788,16.031a4.245,4.245,0,0,0,4.413.659s2.265.239,1.25-1.671c-.846-1.591-10.24-18.472-13.746-24.678a4.154,4.154,0,0,0-3.659-1.983h-15a7.207,7.207,0,0,0-4.255,1.7c-3.213,3.564-13.368,6.7-15.95,6.7h-22.311c-2.171,0-10.887-10.888-10.887-10.888a9.167,9.167,0,0,0-6.293-2.295h-19.507c-2.863,0-5.9,1.848-7.873,3.221s-20.136,14.346-20.136,14.346l36.923,17.537Z" transform="translate(-1457.159 -2101.251)" fill="#fff"/>
    <path id="パス_34" data-name="パス 34" d="M1562.26,2168.02l-23.227,8.113-18.771-18.213,23.007-14.815-54.492-23.875s-1.287-1.584-.318-2.725c2.73-3.215,8.125-9.6,9.534-11.478,1.91-2.546,3.5-4.772,1.59-6.681s-2.533-2.319-3.891-3.837c-1.684-1.883-6.289,1.611-6.289,1.611s-10.181,7.315-17.181,17.178c-4.718,6.647-6.834,14.883-7.712,19.548-.425,2.257.644,3.736,1.244,3.783a47.948,47.948,0,0,1,20.394,6.35h6.187l.262,4.932a34.487,34.487,0,0,1,3.807,4.2c11.771,15.59,13.043,29.589,13.043,32.451s1.91,4.771,7.634,4.771h41.88v-8.774l-.52.5Z" transform="translate(-1442.561 -2093.953)" fill="#fff"/>
  </g>
  <text id="自動二輪" transform="translate(296.652 77)" fill="#fff" font-size="40" font-family="NotoSansCJKjp-Black, Noto Sans CJK JP" font-weight="800"><tspan x="-80" y="0">自動二輪</tspan></text>
</svg>
