<svg id="コンポーネント_6_3" data-name="コンポーネント 6 – 3" xmlns="http://www.w3.org/2000/svg" width="376.581" height="94.731" viewBox="0 0 376.581 94.731">
  <g id="グループ_44" data-name="グループ 44" transform="translate(-2218.662 1889.079)">
    <g id="グループ_39" data-name="グループ 39" transform="translate(2218.662 -1889.079)">
      <path id="パス_21" data-name="パス 21" d="M769.662,2162.448v33.934l15.6,4.624h.575a18.029,18.029,0,0,1,29.029-19.758v-41.186H778.327Zm6.931.575,5.569-17.542,24.426.064v17.476Z" transform="translate(-769.662 -2113.36)" fill="#fff"/>
      <path id="パス_22" data-name="パス 22" d="M1018.081,2089.921v69.952h-31.65a18.021,18.021,0,0,0-28.245,0H866.516v-69.952Z" transform="translate(-814.937 -2089.921)" fill="#fff"/>
      <path id="パス_23" data-name="パス 23" d="M806.2,2230.464a13.551,13.551,0,1,0,13.552-13.549h0A13.551,13.551,0,0,0,806.2,2230.464Zm5.628,0a7.923,7.923,0,1,1,7.924,7.922,7.923,7.923,0,0,1-7.924-7.922Z" transform="translate(-786.743 -2149.285)" fill="#fff"/>
      <path id="パス_24" data-name="パス 24" d="M1039.727,2230.464a13.551,13.551,0,1,0,13.552-13.549h0A13.551,13.551,0,0,0,1039.727,2230.464Zm5.628,0a7.923,7.923,0,1,1,7.924,7.922h0a7.931,7.931,0,0,1-7.922-7.922Z" transform="translate(-895.906 -2149.285)" fill="#fff"/>
      <path id="パス_48" data-name="パス 48" d="M954.664,2237.232a17.715,17.715,0,0,1,.846-5.416H866.516v8.2h88.368A17.9,17.9,0,0,1,954.664,2237.232Z" transform="translate(-814.937 -2156.25)" fill="#fff"/>
      <path id="パス_49" data-name="パス 49" d="M1097.051,2231.816a17.772,17.772,0,0,1,.626,8.2H1125.7v-8.2Z" transform="translate(-922.702 -2156.25)" fill="#fff"/>
    </g>
  </g>
  <text id="大小兼用" transform="translate(296.581 67.731)" fill="#fff" font-size="40" font-family="NotoSansCJKjp-Black, Noto Sans CJK JP" font-weight="800"><tspan x="-80" y="0">大小兼用</tspan></text>
</svg>
