<svg xmlns="http://www.w3.org/2000/svg" width="445.656" height="392.278" viewBox="0 0 445.656 392.278">
  <g id="グループ_47" data-name="グループ 47" transform="translate(-110.767 -89.195)">
    <path id="パス_85" data-name="パス 85" d="M532.382,481.473a23.982,23.982,0,0,0,20.8-36.029L354.367,101.214a23.991,23.991,0,0,0-41.58,0L114.015,445.444a23.979,23.979,0,0,0,20.79,36.029Z" transform="translate(0 0)"/>
    <path id="パス_86" data-name="パス 86" d="M305.61,99.66,120.7,419.944H490.524Z" transform="translate(27.953 29.462)" fill="#ffc400"/>
    <g id="グループ_46" data-name="グループ 46" transform="translate(304.999 197.911)">
      <g id="グループ_45" data-name="グループ 45">
        <path id="パス_87" data-name="パス 87" d="M213.621,191.422a25.582,25.582,0,1,1-25.582-25.582A25.581,25.581,0,0,1,213.621,191.422Z" transform="translate(-159.472 17.876)"/>
        <path id="パス_88" data-name="パス 88" d="M176.6,269.775a13.644,13.644,0,1,0,27.288,0l14.918-123.524a28.566,28.566,0,0,0-57.132,0Z" transform="translate(-161.674 -117.689)"/>
      </g>
    </g>
  </g>
</svg>
